# MagicaVoxel @ Ephtracy

# group
o L_Arm

# material
mtllib gorilla-3-L_Arm.mtl
usemtl palette

# normals
vn -1 0 0
vn 1 0 0
vn 0 0 1
vn 0 0 -1
vn 0 -1 0
vn 0 1 0

# texcoords
vt 0.00195313 0.5

# verts
v -2.3 0.5 -0.4
v -2.3 0.5 -1.1
v -2.3 1.1 -0.4
v -2.3 1.1 -1.1
v -2.3 1.2 -0.5
v -2.3 1.2 -1.2
v -2.3 1.3 -1.2
v -2.3 1.3 -1.3
v -2.3 1.6 -0.4
v -2.3 1.6 -0.5
v -2.3 2.2 -0.4
v -2.3 2.2 -1.3
v -2.2 0.8 -1.1
v -2.2 0.8 -1.2
v -2.2 1.1 -0.4
v -2.2 1.1 -1.1
v -2.2 1.2 -0.3
v -2.2 1.2 -0.4
v -2.2 1.2 -0.5
v -2.2 1.2 -1.2
v -2.2 1.5 -0.2
v -2.2 1.5 -0.3
v -2.2 1.6 -0.4
v -2.2 1.6 -0.5
v -2.2 2.2 -0.2
v -2.2 2.2 -0.4
v -2.1 0.4 -0.4
v -2.1 0.4 -1.1
v -2.1 0.5 -0.4
v -2.1 0.5 -1.1
v -2.1 0.5 -1.2
v -2.1 0.8 -1.1
v -2.1 0.8 -1.2
v -2.1 1.2 -0.2
v -2.1 1.2 -0.3
v -2.1 1.2 -1.2
v -2.1 1.2 -1.3
v -2.1 1.3 -1.2
v -2.1 1.3 -1.3
v -2.1 1.5 -0.2
v -2.1 1.5 -0.3
v -2.1 2.2 -0.2
v -2.1 2.2 -1.3
v -2.1 2.3 -1.2
v -2.1 2.3 -1.3
v -2.1 2.4 -0.2
v -2.1 2.4 -1.2
v -1.8 2.3 -1.2
v -1.8 2.3 -1.3
v -1.8 2.4 -1.2
v -1.8 2.4 -1.3
v -1.5 0.4 -0.4
v -1.5 0.4 -1.1
v -1.5 0.5 -0.4
v -1.5 0.5 -1.1
v -1.4 0.5 -0.4
v -1.4 0.5 -1.2
v -1.4 1.2 -0.4
v -1.4 1.2 -1.2
v -1.3 1.2 -0.2
v -1.3 1.2 -1.3
v -1.3 1.3 -0.3
v -1.3 1.3 -1.2
v -1.3 2.4 -0.2
v -1.3 2.4 -0.3
v -1.3 2.4 -1.2
v -1.3 2.4 -1.3
v -1.2 1.3 -0.3
v -1.2 1.3 -1.2
v -1.2 2.4 -0.3
v -1.2 2.4 -1.2
v -2.2 1.5 -0.2
v -2.2 2.2 -0.2
v -2.1 1.2 -0.2
v -2.1 1.5 -0.2
v -2.1 2.2 -0.2
v -2.1 2.4 -0.2
v -1.3 1.2 -0.2
v -1.3 2.4 -0.2
v -2.2 1.2 -0.3
v -2.2 1.5 -0.3
v -2.1 1.2 -0.3
v -2.1 1.5 -0.3
v -1.3 1.3 -0.3
v -1.3 2.4 -0.3
v -1.2 1.3 -0.3
v -1.2 2.4 -0.3
v -2.3 0.5 -0.4
v -2.3 1.1 -0.4
v -2.3 1.6 -0.4
v -2.3 2.2 -0.4
v -2.2 1.1 -0.4
v -2.2 1.2 -0.4
v -2.2 1.6 -0.4
v -2.2 2.2 -0.4
v -2.1 0.4 -0.4
v -2.1 0.5 -0.4
v -1.5 0.4 -0.4
v -1.5 0.5 -0.4
v -1.4 0.5 -0.4
v -1.4 1.2 -0.4
v -2.3 1.2 -0.5
v -2.3 1.6 -0.5
v -2.2 1.2 -0.5
v -2.2 1.6 -0.5
v -2.3 0.5 -1.1
v -2.3 1.1 -1.1
v -2.2 0.8 -1.1
v -2.2 1.1 -1.1
v -2.1 0.4 -1.1
v -2.1 0.5 -1.1
v -2.1 0.8 -1.1
v -1.5 0.4 -1.1
v -1.5 0.5 -1.1
v -2.3 1.2 -1.2
v -2.3 1.3 -1.2
v -2.2 0.8 -1.2
v -2.2 1.2 -1.2
v -2.1 0.5 -1.2
v -2.1 0.8 -1.2
v -2.1 1.2 -1.2
v -2.1 1.3 -1.2
v -2.1 2.3 -1.2
v -2.1 2.4 -1.2
v -1.8 2.3 -1.2
v -1.8 2.4 -1.2
v -1.4 0.5 -1.2
v -1.4 1.2 -1.2
v -1.3 1.3 -1.2
v -1.3 2.4 -1.2
v -1.2 1.3 -1.2
v -1.2 2.4 -1.2
v -2.3 1.3 -1.3
v -2.3 2.2 -1.3
v -2.1 1.2 -1.3
v -2.1 1.3 -1.3
v -2.1 2.2 -1.3
v -2.1 2.3 -1.3
v -1.8 2.3 -1.3
v -1.8 2.4 -1.3
v -1.3 1.2 -1.3
v -1.3 2.4 -1.3
v -2.1 0.4 -0.4
v -1.5 0.4 -0.4
v -2.1 0.4 -1.1
v -1.5 0.4 -1.1
v -2.3 0.5 -0.4
v -2.1 0.5 -0.4
v -1.5 0.5 -0.4
v -1.4 0.5 -0.4
v -2.3 0.5 -1.1
v -2.1 0.5 -1.1
v -1.5 0.5 -1.1
v -2.1 0.5 -1.2
v -1.4 0.5 -1.2
v -2.2 0.8 -1.1
v -2.1 0.8 -1.1
v -2.2 0.8 -1.2
v -2.1 0.8 -1.2
v -2.1 1.2 -0.2
v -1.3 1.2 -0.2
v -2.2 1.2 -0.3
v -2.1 1.2 -0.3
v -2.2 1.2 -0.4
v -1.4 1.2 -0.4
v -2.3 1.2 -0.5
v -2.2 1.2 -0.5
v -2.3 1.2 -1.2
v -2.2 1.2 -1.2
v -2.1 1.2 -1.2
v -1.4 1.2 -1.2
v -2.1 1.2 -1.3
v -1.3 1.2 -1.3
v -1.3 1.3 -0.3
v -1.2 1.3 -0.3
v -2.3 1.3 -1.2
v -2.1 1.3 -1.2
v -1.3 1.3 -1.2
v -1.2 1.3 -1.2
v -2.3 1.3 -1.3
v -2.1 1.3 -1.3
v -2.2 1.5 -0.2
v -2.1 1.5 -0.2
v -2.2 1.5 -0.3
v -2.1 1.5 -0.3
v -2.3 1.6 -0.4
v -2.2 1.6 -0.4
v -2.3 1.6 -0.5
v -2.2 1.6 -0.5
v -2.3 1.1 -0.4
v -2.2 1.1 -0.4
v -2.3 1.1 -1.1
v -2.2 1.1 -1.1
v -2.2 2.2 -0.2
v -2.1 2.2 -0.2
v -2.3 2.2 -0.4
v -2.2 2.2 -0.4
v -2.3 2.2 -1.3
v -2.1 2.2 -1.3
v -2.1 2.3 -1.2
v -1.8 2.3 -1.2
v -2.1 2.3 -1.3
v -1.8 2.3 -1.3
v -2.1 2.4 -0.2
v -1.3 2.4 -0.2
v -1.3 2.4 -0.3
v -1.2 2.4 -0.3
v -2.1 2.4 -1.2
v -1.8 2.4 -1.2
v -1.3 2.4 -1.2
v -1.2 2.4 -1.2
v -1.8 2.4 -1.3
v -1.3 2.4 -1.3

# faces
f 3/1/1 2/1/1 1/1/1
f 4/1/1 2/1/1 3/1/1
f 7/1/1 6/1/1 5/1/1
f 10/1/1 7/1/1 5/1/1
f 10/1/1 8/1/1 7/1/1
f 11/1/1 10/1/1 9/1/1
f 12/1/1 8/1/1 10/1/1
f 12/1/1 10/1/1 11/1/1
f 16/1/1 14/1/1 13/1/1
f 18/1/1 16/1/1 15/1/1
f 19/1/1 16/1/1 18/1/1
f 20/1/1 14/1/1 16/1/1
f 20/1/1 16/1/1 19/1/1
f 22/1/1 19/1/1 18/1/1
f 22/1/1 18/1/1 17/1/1
f 23/1/1 19/1/1 22/1/1
f 23/1/1 22/1/1 21/1/1
f 24/1/1 19/1/1 23/1/1
f 25/1/1 23/1/1 21/1/1
f 26/1/1 23/1/1 25/1/1
f 29/1/1 28/1/1 27/1/1
f 30/1/1 28/1/1 29/1/1
f 32/1/1 31/1/1 30/1/1
f 33/1/1 31/1/1 32/1/1
f 38/1/1 37/1/1 36/1/1
f 39/1/1 37/1/1 38/1/1
f 40/1/1 35/1/1 34/1/1
f 41/1/1 35/1/1 40/1/1
f 44/1/1 43/1/1 42/1/1
f 45/1/1 43/1/1 44/1/1
f 46/1/1 44/1/1 42/1/1
f 47/1/1 44/1/1 46/1/1
f 50/1/1 49/1/1 48/1/1
f 51/1/1 49/1/1 50/1/1
f 52/1/2 53/1/2 54/1/2
f 54/1/2 53/1/2 55/1/2
f 56/1/2 57/1/2 58/1/2
f 58/1/2 57/1/2 59/1/2
f 60/1/2 61/1/2 62/1/2
f 62/1/2 61/1/2 63/1/2
f 60/1/2 62/1/2 64/1/2
f 64/1/2 62/1/2 65/1/2
f 63/1/2 61/1/2 66/1/2
f 66/1/2 61/1/2 67/1/2
f 68/1/2 69/1/2 70/1/2
f 70/1/2 69/1/2 71/1/2
f 75/1/3 73/1/3 72/1/3
f 76/1/3 73/1/3 75/1/3
f 78/1/3 75/1/3 74/1/3
f 78/1/3 77/1/3 76/1/3
f 78/1/3 76/1/3 75/1/3
f 79/1/3 77/1/3 78/1/3
f 82/1/3 81/1/3 80/1/3
f 83/1/3 81/1/3 82/1/3
f 86/1/3 85/1/3 84/1/3
f 87/1/3 85/1/3 86/1/3
f 92/1/3 89/1/3 88/1/3
f 94/1/3 91/1/3 90/1/3
f 95/1/3 91/1/3 94/1/3
f 97/1/3 93/1/3 92/1/3
f 97/1/3 92/1/3 88/1/3
f 98/1/3 97/1/3 96/1/3
f 99/1/3 93/1/3 97/1/3
f 99/1/3 97/1/3 98/1/3
f 100/1/3 93/1/3 99/1/3
f 101/1/3 93/1/3 100/1/3
f 104/1/3 103/1/3 102/1/3
f 105/1/3 103/1/3 104/1/3
f 106/1/4 107/1/4 108/1/4
f 108/1/4 107/1/4 109/1/4
f 106/1/4 108/1/4 111/1/4
f 111/1/4 108/1/4 112/1/4
f 110/1/4 111/1/4 113/1/4
f 113/1/4 111/1/4 114/1/4
f 115/1/4 116/1/4 118/1/4
f 117/1/4 118/1/4 120/1/4
f 118/1/4 116/1/4 121/1/4
f 120/1/4 118/1/4 121/1/4
f 121/1/4 116/1/4 122/1/4
f 123/1/4 124/1/4 125/1/4
f 125/1/4 124/1/4 126/1/4
f 119/1/4 120/1/4 127/1/4
f 120/1/4 121/1/4 127/1/4
f 127/1/4 121/1/4 128/1/4
f 129/1/4 130/1/4 131/1/4
f 131/1/4 130/1/4 132/1/4
f 133/1/4 134/1/4 136/1/4
f 136/1/4 134/1/4 137/1/4
f 135/1/4 136/1/4 139/1/4
f 137/1/4 138/1/4 139/1/4
f 136/1/4 137/1/4 139/1/4
f 135/1/4 139/1/4 141/1/4
f 139/1/4 140/1/4 141/1/4
f 141/1/4 140/1/4 142/1/4
f 145/1/5 144/1/5 143/1/5
f 146/1/5 144/1/5 145/1/5
f 151/1/5 148/1/5 147/1/5
f 152/1/5 148/1/5 151/1/5
f 153/1/5 150/1/5 149/1/5
f 154/1/5 153/1/5 152/1/5
f 155/1/5 150/1/5 153/1/5
f 155/1/5 153/1/5 154/1/5
f 158/1/5 157/1/5 156/1/5
f 159/1/5 157/1/5 158/1/5
f 163/1/5 161/1/5 160/1/5
f 164/1/5 163/1/5 162/1/5
f 165/1/5 161/1/5 163/1/5
f 165/1/5 163/1/5 164/1/5
f 168/1/5 167/1/5 166/1/5
f 169/1/5 167/1/5 168/1/5
f 171/1/5 161/1/5 165/1/5
f 172/1/5 171/1/5 170/1/5
f 173/1/5 161/1/5 171/1/5
f 173/1/5 171/1/5 172/1/5
f 178/1/5 175/1/5 174/1/5
f 179/1/5 175/1/5 178/1/5
f 180/1/5 177/1/5 176/1/5
f 181/1/5 177/1/5 180/1/5
f 184/1/5 183/1/5 182/1/5
f 185/1/5 183/1/5 184/1/5
f 188/1/5 187/1/5 186/1/5
f 189/1/5 187/1/5 188/1/5
f 190/1/6 191/1/6 192/1/6
f 192/1/6 191/1/6 193/1/6
f 194/1/6 195/1/6 197/1/6
f 196/1/6 197/1/6 198/1/6
f 197/1/6 195/1/6 199/1/6
f 198/1/6 197/1/6 199/1/6
f 200/1/6 201/1/6 202/1/6
f 202/1/6 201/1/6 203/1/6
f 204/1/6 205/1/6 206/1/6
f 204/1/6 206/1/6 208/1/6
f 206/1/6 207/1/6 208/1/6
f 208/1/6 207/1/6 209/1/6
f 209/1/6 207/1/6 210/1/6
f 210/1/6 207/1/6 211/1/6
f 209/1/6 210/1/6 212/1/6
f 212/1/6 210/1/6 213/1/6
